<svg xmlns="http://www.w3.org/2000/svg" viewBox="0 0 96 96"><rect x="10" y="10" width="76" height="76" fill="rgba(4,22,15,.6)" rx="6"/><path d="M10 30 v-14 a6 6 0 0 1 6 -6 h14 M86 30 v-14 a6 6 0 0 0 -6 -6 h-14 M10 66 v14 a6 6 0 0 0 6 6 h14 M86 66 v14 a6 6 0 0 1 -6 6 h-14" fill="none" stroke="#2bf5d8" stroke-width="3.4"/><circle cx="48" cy="52" r="24" fill="none" stroke="#2bf5d8" stroke-width="3.4"/><path d="M48 52 L48 36 M48 52 l10 8" fill="none" stroke="#b7f542" stroke-width="3.4" stroke-linecap="round"/><path d="M40 22 h16 M48 22 v6" fill="none" stroke="#2bf5d8" stroke-width="3.4" stroke-linecap="round"/></svg>